<svg xmlns="http://www.w3.org/2000/svg" x="0px" y="0px"
width="96" height="96"
viewBox="0 0 172 172"
style=" fill:#26e07f;"><g fill="none" fill-rule="nonzero" stroke="none" stroke-width="1" stroke-linecap="butt" stroke-linejoin="miter" stroke-miterlimit="10" stroke-dasharray="" stroke-dashoffset="0" font-family="none" font-weight="none" font-size="none" text-anchor="none" style="mix-blend-mode: normal"><path d="M0,172v-172h172v172z" fill="none"></path><g id="original-icon" fill="#2ecc71"><path d="M86,14.33333c-39.41667,0 -71.66667,32.25 -71.66667,71.66667c0,39.41667 32.25,71.66667 71.66667,71.66667c39.41667,0 71.66667,-32.25 71.66667,-71.66667c0,-7.88333 -1.43333,-15.76107 -3.58333,-22.92773l-12.17774,11.46387c0.71667,3.58333 1.42774,7.16386 1.42774,11.46386c0,31.53333 -25.8,57.33333 -57.33333,57.33333c-31.53333,0 -57.33333,-25.8 -57.33333,-57.33333c0,-31.53333 25.8,-57.33333 57.33333,-57.33333c11.46667,0 22.21947,3.58893 31.53614,9.32227l10.03613,-10.03613c-11.46667,-8.6 -25.8056,-13.61947 -41.57226,-13.61947zM152.6556,23.6556l-73.82226,73.80827l-23.6556,-23.6416l-10.02214,10.02214l33.67773,33.69173l83.8444,-83.8584z"></path></g><path d="" fill="none"></path></g></svg>